<svg xmlns="http://www.w3.org/2000/svg" width="960" height="720" viewBox="0 0 960 720" fill="none">
  <defs>
    <linearGradient id="bg" x1="140" y1="120" x2="820" y2="640" gradientUnits="userSpaceOnUse">
      <stop offset="0" stop-color="#FFFFFF" stop-opacity="0.72"/>
      <stop offset="1" stop-color="#C0392B" stop-opacity="0.08"/>
    </linearGradient>
    <linearGradient id="blue" x1="580" y1="220" x2="820" y2="520" gradientUnits="userSpaceOnUse">
      <stop offset="0" stop-color="#2B6CB0" stop-opacity="0.14"/>
      <stop offset="1" stop-color="#2B6CB0" stop-opacity="0"/>
    </linearGradient>
    <filter id="soft" x="-20%" y="-20%" width="140%" height="140%">
      <feGaussianBlur stdDeviation="2.5" result="b"/>
      <feColorMatrix in="b" type="matrix"
        values="1 0 0 0 0
                0 1 0 0 0
                0 0 1 0 0
                0 0 0 0.42 0" result="o"/>
      <feMerge>
        <feMergeNode in="o"/>
        <feMergeNode in="SourceGraphic"/>
      </feMerge>
    </filter>
  </defs>

  <rect x="150" y="120" width="660" height="520" rx="38" fill="url(#bg)" stroke="#CCC8C0" stroke-opacity="0.75"/>
  <path d="M232 550c58-78 140-124 246-134 188-18 250 92 396 46 70-22 118-70 152-138" stroke="#CFCAC2" stroke-width="3" stroke-linecap="round" stroke-dasharray="6 12" opacity="0.9"/>
  <path d="M248 576c78-48 160-66 256-56 170 18 232 120 378 102 76-9 132-36 170-78" stroke="#C0392B" stroke-opacity="0.28" stroke-width="3" stroke-linecap="round"/>

  <g filter="url(#soft)">
    <rect x="250" y="220" width="220" height="300" rx="22" fill="#E4E0DA" stroke="#CCC8C0"/>
    <rect x="272" y="254" width="176" height="14" rx="7" fill="#C0392B" fill-opacity="0.18"/>
    <rect x="272" y="284" width="142" height="12" rx="6" fill="#1A1A18" fill-opacity="0.12"/>
    <rect x="272" y="310" width="164" height="12" rx="6" fill="#1A1A18" fill-opacity="0.10"/>
    <rect x="272" y="336" width="128" height="12" rx="6" fill="#1A1A18" fill-opacity="0.10"/>
    <rect x="272" y="390" width="176" height="1.5" rx="0.75" fill="#CCC8C0" fill-opacity="0.7"/>
    <rect x="272" y="410" width="112" height="12" rx="6" fill="#1A1A18" fill-opacity="0.10"/>
    <rect x="272" y="436" width="154" height="12" rx="6" fill="#1A1A18" fill-opacity="0.08"/>

    <rect x="506" y="250" width="250" height="250" rx="30" fill="url(#blue)"/>
    <circle cx="624" cy="340" r="86" fill="#1A1A18" fill-opacity="0.05"/>
    <path d="M624 300v48" stroke="#C0392B" stroke-opacity="0.32" stroke-width="4" stroke-linecap="round"/>
    <path d="M624 348c26 0 48 22 48 48" stroke="#C0392B" stroke-opacity="0.32" stroke-width="4" stroke-linecap="round"/>
    <path d="M624 348c-26 0-48 22-48 48" stroke="#C0392B" stroke-opacity="0.32" stroke-width="4" stroke-linecap="round"/>

    <g opacity="0.95">
      <rect x="560" y="442" width="220" height="150" rx="22" fill="#F0EEEA" stroke="#CCC8C0" stroke-opacity="0.9"/>
      <path d="M612 470h142" stroke="#1A1A18" stroke-opacity="0.14" stroke-width="10" stroke-linecap="round"/>
      <path d="M612 500h118" stroke="#1A1A18" stroke-opacity="0.12" stroke-width="10" stroke-linecap="round"/>
      <path d="M612 530h132" stroke="#1A1A18" stroke-opacity="0.10" stroke-width="10" stroke-linecap="round"/>
      <path d="M612 560h96" stroke="#1A1A18" stroke-opacity="0.10" stroke-width="10" stroke-linecap="round"/>
      <path d="M578 472l18 18 36-40" stroke="#2B6CB0" stroke-opacity="0.55" stroke-width="6" stroke-linecap="round" stroke-linejoin="round"/>
    </g>
  </g>

  <path d="M188 198c14-22 34-38 60-48" stroke="#2B6CB0" stroke-opacity="0.18" stroke-width="3" stroke-linecap="round"/>
  <path d="M176 236c26-26 60-40 102-42" stroke="#2B6CB0" stroke-opacity="0.14" stroke-width="3" stroke-linecap="round"/>
</svg>
